<mxfile host="app.diagrams.net" agent="Mozilla/5.0 (X11; Linux x86_64) AppleWebKit/537.36 (KHTML, like Gecko) Chrome/134.0.0.0 Safari/537.36" version="26.2.14">
  <diagram name="Page-1" id="7Ba7hKmJzwSPL1WUXT_S">
    <mxGraphModel>
      <root>
        <mxCell id="0" />
        <mxCell id="1" parent="0" />
        <mxCell id="2" value="Session Management" style="whiteSpace=wrap;strokeWidth=2;" vertex="1" parent="1">
          <mxGeometry x="2909" y="15" width="179" height="40" as="geometry" />
        </mxCell>
        <mxCell id="3" value="API Layer" style="whiteSpace=wrap;strokeWidth=2;" vertex="1" parent="1">
          <mxGeometry x="8" y="642" width="369" height="128" as="geometry" />
        </mxCell>
        <mxCell id="4" value="Data Storage" style="whiteSpace=wrap;strokeWidth=2;" vertex="1" parent="1">
          <mxGeometry x="397" y="642" width="957" height="280" as="geometry" />
        </mxCell>
        <mxCell id="5" value="Authentication" style="whiteSpace=wrap;strokeWidth=2;" vertex="1" parent="1">
          <mxGeometry x="1374" y="472" width="488" height="298" as="geometry" />
        </mxCell>
        <mxCell id="6" value="Application" style="whiteSpace=wrap;strokeWidth=2;" vertex="1" parent="1">
          <mxGeometry x="3138" y="8" width="141" height="54" as="geometry" />
        </mxCell>
        <mxCell id="7" value="Consumers" style="whiteSpace=wrap;strokeWidth=2;" vertex="1" parent="1">
          <mxGeometry x="1817" y="112" width="137" height="54" as="geometry" />
        </mxCell>
        <mxCell id="8" value="Restaurants" style="whiteSpace=wrap;strokeWidth=2;" vertex="1" parent="1">
          <mxGeometry x="2600" y="497" width="144" height="54" as="geometry" />
        </mxCell>
        <mxCell id="9" value="Suppliers" style="whiteSpace=wrap;strokeWidth=2;" vertex="1" parent="1">
          <mxGeometry x="3669" y="497" width="125" height="54" as="geometry" />
        </mxCell>
        <mxCell id="10" value="Administrator" style="whiteSpace=wrap;strokeWidth=2;" vertex="1" parent="1">
          <mxGeometry x="3892" y="112" width="158" height="54" as="geometry" />
        </mxCell>
        <mxCell id="11" value="Authentication" style="rhombus;strokeWidth=2;whiteSpace=wrap;" vertex="1" parent="1">
          <mxGeometry x="1457" y="239" width="160" height="160" as="geometry" />
        </mxCell>
        <mxCell id="12" value="Consumer Login" style="whiteSpace=wrap;strokeWidth=2;" vertex="1" parent="1">
          <mxGeometry x="1409" y="497" width="173" height="54" as="geometry" />
        </mxCell>
        <mxCell id="13" value="Social Media Login" style="whiteSpace=wrap;strokeWidth=2;" vertex="1" parent="1">
          <mxGeometry x="1632" y="497" width="191" height="54" as="geometry" />
        </mxCell>
        <mxCell id="14" value="Hand Raise" style="whiteSpace=wrap;strokeWidth=2;" vertex="1" parent="1">
          <mxGeometry x="1897" y="679" width="139" height="54" as="geometry" />
        </mxCell>
        <mxCell id="15" value="Redemption" style="whiteSpace=wrap;strokeWidth=2;" vertex="1" parent="1">
          <mxGeometry x="2086" y="679" width="145" height="54" as="geometry" />
        </mxCell>
        <mxCell id="16" value="Invite" style="whiteSpace=wrap;strokeWidth=2;" vertex="1" parent="1">
          <mxGeometry x="2281" y="679" width="101" height="54" as="geometry" />
        </mxCell>
        <mxCell id="17" value="Manage Venue Data" style="whiteSpace=wrap;strokeWidth=2;" vertex="1" parent="1">
          <mxGeometry x="2432" y="679" width="200" height="54" as="geometry" />
        </mxCell>
        <mxCell id="18" value="Activate/Deactivate Product" style="whiteSpace=wrap;strokeWidth=2;" vertex="1" parent="1">
          <mxGeometry x="2682" y="667" width="260" height="78" as="geometry" />
        </mxCell>
        <mxCell id="19" value="Product Catalog" style="whiteSpace=wrap;strokeWidth=2;" vertex="1" parent="1">
          <mxGeometry x="3225" y="679" width="174" height="54" as="geometry" />
        </mxCell>
        <mxCell id="20" value="Consumer Demand Analytics" style="whiteSpace=wrap;strokeWidth=2;" vertex="1" parent="1">
          <mxGeometry x="3449" y="667" width="260" height="78" as="geometry" />
        </mxCell>
        <mxCell id="21" value="Admin Functions" style="whiteSpace=wrap;strokeWidth=2;" vertex="1" parent="1">
          <mxGeometry x="3767" y="292" width="178" height="54" as="geometry" />
        </mxCell>
        <mxCell id="22" value="Data Verification" style="whiteSpace=wrap;strokeWidth=2;" vertex="1" parent="1">
          <mxGeometry x="3995" y="292" width="181" height="54" as="geometry" />
        </mxCell>
        <mxCell id="23" value="JWT" style="whiteSpace=wrap;strokeWidth=2;" vertex="1" parent="1">
          <mxGeometry x="1485" y="679" width="91" height="54" as="geometry" />
        </mxCell>
        <mxCell id="24" value="MongoDB" style="whiteSpace=wrap;strokeWidth=2;" vertex="1" parent="1">
          <mxGeometry x="602" y="843" width="124" height="54" as="geometry" />
        </mxCell>
        <mxCell id="25" value="AWS S3" style="whiteSpace=wrap;strokeWidth=2;" vertex="1" parent="1">
          <mxGeometry x="854" y="843" width="110" height="54" as="geometry" />
        </mxCell>
        <mxCell id="26" value="Redis" style="whiteSpace=wrap;strokeWidth=2;" vertex="1" parent="1">
          <mxGeometry x="441" y="679" width="97" height="54" as="geometry" />
        </mxCell>
        <mxCell id="27" value="REST API" style="whiteSpace=wrap;strokeWidth=2;" vertex="1" parent="1">
          <mxGeometry x="43" y="679" width="121" height="54" as="geometry" />
        </mxCell>
        <mxCell id="28" value="Socket IO" style="whiteSpace=wrap;strokeWidth=2;" vertex="1" parent="1">
          <mxGeometry x="214" y="679" width="127" height="54" as="geometry" />
        </mxCell>
        <mxCell id="29" value="Limits of Redemption" style="whiteSpace=wrap;strokeWidth=2;" vertex="1" parent="1">
          <mxGeometry x="1779" y="843" width="213" height="54" as="geometry" />
        </mxCell>
        <mxCell id="30" value="Maximum 4 in a month" style="whiteSpace=wrap;strokeWidth=2;" vertex="1" parent="1">
          <mxGeometry x="1775" y="995" width="223" height="54" as="geometry" />
        </mxCell>
        <mxCell id="31" value="Verify Restaurant" style="whiteSpace=wrap;strokeWidth=2;" vertex="1" parent="1">
          <mxGeometry x="2992" y="679" width="184" height="54" as="geometry" />
        </mxCell>
        <mxCell id="32" value="Monthly/Yearly with Stripe" style="whiteSpace=wrap;strokeWidth=2;" vertex="1" parent="1">
          <mxGeometry x="3759" y="679" width="252" height="54" as="geometry" />
        </mxCell>
        <mxCell id="33" value="Based on Demand" style="whiteSpace=wrap;strokeWidth=2;" vertex="1" parent="1">
          <mxGeometry x="4061" y="679" width="186" height="54" as="geometry" />
        </mxCell>
        <mxCell id="34" value="" style="curved=1;startArrow=none;endArrow=block;exitX=0;exitY=0.55;entryX=0.5;entryY=0;" edge="1" parent="1" source="6" target="7">
          <mxGeometry relative="1" as="geometry">
            <Array as="points">
              <mxPoint x="1886" y="87" />
            </Array>
          </mxGeometry>
        </mxCell>
        <mxCell id="35" value="" style="curved=1;startArrow=none;endArrow=block;exitX=0;exitY=0.63;entryX=0.5;entryY=0.01;" edge="1" parent="1" source="6" target="8">
          <mxGeometry relative="1" as="geometry">
            <Array as="points">
              <mxPoint x="2672" y="87" />
            </Array>
          </mxGeometry>
        </mxCell>
        <mxCell id="36" value="" style="curved=1;startArrow=none;endArrow=block;exitX=1;exitY=0.63;entryX=0.5;entryY=0.01;" edge="1" parent="1" source="6" target="9">
          <mxGeometry relative="1" as="geometry">
            <Array as="points">
              <mxPoint x="3732" y="87" />
            </Array>
          </mxGeometry>
        </mxCell>
        <mxCell id="37" value="" style="curved=1;startArrow=none;endArrow=block;exitX=1;exitY=0.59;entryX=0.5;entryY=0;" edge="1" parent="1" source="6" target="10">
          <mxGeometry relative="1" as="geometry">
            <Array as="points">
              <mxPoint x="3971" y="87" />
            </Array>
          </mxGeometry>
        </mxCell>
        <mxCell id="38" value="login/register" style="curved=1;startArrow=none;endArrow=block;exitX=0;exitY=0.73;entryX=0.5;entryY=0;" edge="1" parent="1" source="7" target="11">
          <mxGeometry relative="1" as="geometry">
            <Array as="points">
              <mxPoint x="1538" y="203" />
            </Array>
          </mxGeometry>
        </mxCell>
        <mxCell id="39" value="Phone Number" style="curved=1;startArrow=none;endArrow=block;exitX=0.32;exitY=1;entryX=0.5;entryY=0.01;" edge="1" parent="1" source="11" target="12">
          <mxGeometry relative="1" as="geometry">
            <Array as="points">
              <mxPoint x="1496" y="436" />
            </Array>
          </mxGeometry>
        </mxCell>
        <mxCell id="40" value="Social Media" style="curved=1;startArrow=none;endArrow=block;exitX=1;exitY=0.81;entryX=0.5;entryY=0.01;" edge="1" parent="1" source="11" target="13">
          <mxGeometry relative="1" as="geometry">
            <Array as="points">
              <mxPoint x="1728" y="436" />
            </Array>
          </mxGeometry>
        </mxCell>
        <mxCell id="41" value="Show Interest" style="curved=1;startArrow=none;endArrow=block;exitX=0.75;exitY=1;entryX=0.5;entryY=0;" edge="1" parent="1" source="7" target="14">
          <mxGeometry relative="1" as="geometry">
            <Array as="points">
              <mxPoint x="1967" y="203" />
            </Array>
          </mxGeometry>
        </mxCell>
        <mxCell id="42" value="Redeem Product" style="curved=1;startArrow=none;endArrow=block;exitX=1;exitY=0.79;entryX=0.5;entryY=0;" edge="1" parent="1" source="7" target="15">
          <mxGeometry relative="1" as="geometry">
            <Array as="points">
              <mxPoint x="2159" y="203" />
            </Array>
          </mxGeometry>
        </mxCell>
        <mxCell id="43" value="Invite Consumer" style="curved=1;startArrow=none;endArrow=block;exitX=0;exitY=0.79;entryX=0.5;entryY=0;" edge="1" parent="1" source="8" target="16">
          <mxGeometry relative="1" as="geometry">
            <Array as="points">
              <mxPoint x="2332" y="597" />
            </Array>
          </mxGeometry>
        </mxCell>
        <mxCell id="44" value="Manage Venues" style="curved=1;startArrow=none;endArrow=block;exitX=0.14;exitY=1.01;entryX=0.5;entryY=0;" edge="1" parent="1" source="8" target="17">
          <mxGeometry relative="1" as="geometry">
            <Array as="points">
              <mxPoint x="2532" y="597" />
            </Array>
          </mxGeometry>
        </mxCell>
        <mxCell id="45" value="Product Activation" style="curved=1;startArrow=none;endArrow=block;exitX=0.86;exitY=1.01;entryX=0.5;entryY=0;" edge="1" parent="1" source="8" target="18">
          <mxGeometry relative="1" as="geometry">
            <Array as="points">
              <mxPoint x="2812" y="597" />
            </Array>
          </mxGeometry>
        </mxCell>
        <mxCell id="46" value="Upload Products" style="curved=1;startArrow=none;endArrow=block;exitX=0;exitY=0.71;entryX=0.5;entryY=0;" edge="1" parent="1" source="9" target="19">
          <mxGeometry relative="1" as="geometry">
            <Array as="points">
              <mxPoint x="3312" y="597" />
            </Array>
          </mxGeometry>
        </mxCell>
        <mxCell id="47" value="View Demand" style="curved=1;startArrow=none;endArrow=block;exitX=0.05;exitY=1.01;entryX=0.5;entryY=0;" edge="1" parent="1" source="9" target="20">
          <mxGeometry relative="1" as="geometry">
            <Array as="points">
              <mxPoint x="3579" y="597" />
            </Array>
          </mxGeometry>
        </mxCell>
        <mxCell id="48" value="Manage Data" style="curved=1;startArrow=none;endArrow=block;exitX=0.19;exitY=1;entryX=0.5;entryY=0;" edge="1" parent="1" source="10" target="21">
          <mxGeometry relative="1" as="geometry">
            <Array as="points">
              <mxPoint x="3856" y="203" />
            </Array>
          </mxGeometry>
        </mxCell>
        <mxCell id="49" value="Verify Restaurants" style="curved=1;startArrow=none;endArrow=block;exitX=0.81;exitY=1;entryX=0.5;entryY=0;" edge="1" parent="1" source="10" target="22">
          <mxGeometry relative="1" as="geometry">
            <Array as="points">
              <mxPoint x="4085" y="203" />
            </Array>
          </mxGeometry>
        </mxCell>
        <mxCell id="50" value="" style="curved=1;startArrow=none;endArrow=block;exitX=0.39;exitY=1.01;entryX=0.1;entryY=0;" edge="1" parent="1" source="12" target="23">
          <mxGeometry relative="1" as="geometry">
            <Array as="points">
              <mxPoint x="1445" y="597" />
              <mxPoint x="1445" y="642" />
            </Array>
          </mxGeometry>
        </mxCell>
        <mxCell id="51" value="" style="curved=1;startArrow=none;endArrow=block;exitX=0.34;exitY=1.01;entryX=0.99;entryY=0.04;" edge="1" parent="1" source="13" target="23">
          <mxGeometry relative="1" as="geometry">
            <Array as="points">
              <mxPoint x="1646" y="597" />
              <mxPoint x="1646" y="642" />
            </Array>
          </mxGeometry>
        </mxCell>
        <mxCell id="52" value="" style="curved=1;startArrow=none;endArrow=block;exitX=0.5;exitY=1;entryX=0;entryY=0.18;" edge="1" parent="1" source="27" target="24">
          <mxGeometry relative="1" as="geometry">
            <Array as="points">
              <mxPoint x="104" y="770" />
              <mxPoint x="439" y="807" />
            </Array>
          </mxGeometry>
        </mxCell>
        <mxCell id="53" value="" style="curved=1;startArrow=none;endArrow=block;exitX=0.36;exitY=1;entryX=0;entryY=0.15;" edge="1" parent="1" source="26" target="24">
          <mxGeometry relative="1" as="geometry">
            <Array as="points">
              <mxPoint x="459" y="770" />
              <mxPoint x="459" y="807" />
            </Array>
          </mxGeometry>
        </mxCell>
        <mxCell id="54" value="Store Session" style="curved=1;startArrow=none;endArrow=block;exitX=0.68;exitY=1.01;entryX=1;entryY=0.45;" edge="1" parent="1" source="12" target="26">
          <mxGeometry relative="1" as="geometry">
            <Array as="points">
              <mxPoint x="1577" y="597" />
              <mxPoint x="1577" y="642" />
            </Array>
          </mxGeometry>
        </mxCell>
        <mxCell id="55" value="Store Session" style="curved=1;startArrow=none;endArrow=block;exitX=0.57;exitY=1.01;entryX=1;entryY=0.45;" edge="1" parent="1" source="13" target="26">
          <mxGeometry relative="1" as="geometry">
            <Array as="points">
              <mxPoint x="1762" y="597" />
              <mxPoint x="1762" y="642" />
            </Array>
          </mxGeometry>
        </mxCell>
        <mxCell id="56" value="Store Interest" style="curved=1;startArrow=none;endArrow=block;exitX=0;exitY=0.56;entryX=0.4;entryY=0;" edge="1" parent="1" source="14" target="24">
          <mxGeometry relative="1" as="geometry">
            <Array as="points">
              <mxPoint x="633" y="770" />
              <mxPoint x="633" y="807" />
            </Array>
          </mxGeometry>
        </mxCell>
        <mxCell id="57" value="Upload Receipt" style="curved=1;startArrow=none;endArrow=block;exitX=0;exitY=0.56;entryX=0;entryY=0.01;" edge="1" parent="1" source="15" target="25">
          <mxGeometry relative="1" as="geometry">
            <Array as="points">
              <mxPoint x="777" y="770" />
              <mxPoint x="777" y="807" />
            </Array>
          </mxGeometry>
        </mxCell>
        <mxCell id="58" value="Get Extra Points" style="curved=1;startArrow=none;endArrow=block;exitX=0;exitY=0.57;entryX=1;entryY=0.21;" edge="1" parent="1" source="15" target="24">
          <mxGeometry relative="1" as="geometry">
            <Array as="points">
              <mxPoint x="914" y="770" />
              <mxPoint x="914" y="807" />
            </Array>
          </mxGeometry>
        </mxCell>
        <mxCell id="59" value="Limits" style="curved=1;startArrow=none;endArrow=block;exitX=0;exitY=0.82;entryX=0.5;entryY=0;" edge="1" parent="1" source="15" target="29">
          <mxGeometry relative="1" as="geometry">
            <Array as="points">
              <mxPoint x="1886" y="770" />
            </Array>
          </mxGeometry>
        </mxCell>
        <mxCell id="60" value="1 per day" style="curved=1;startArrow=none;endArrow=block;exitX=0.5;exitY=1;entryX=0.5;entryY=0;" edge="1" parent="1" source="29" target="30">
          <mxGeometry relative="1" as="geometry">
            <Array as="points" />
          </mxGeometry>
        </mxCell>
        <mxCell id="61" value="Connect to Google My Business" style="curved=1;startArrow=none;endArrow=block;exitX=1;exitY=0.74;entryX=0.5;entryY=0;" edge="1" parent="1" source="8" target="31">
          <mxGeometry relative="1" as="geometry">
            <Array as="points">
              <mxPoint x="3083" y="597" />
            </Array>
          </mxGeometry>
        </mxCell>
        <mxCell id="62" value="Data Collection" style="curved=1;startArrow=none;endArrow=block;exitX=0;exitY=0.55;entryX=1;entryY=0.31;" edge="1" parent="1" source="31" target="24">
          <mxGeometry relative="1" as="geometry">
            <Array as="points">
              <mxPoint x="1051" y="770" />
              <mxPoint x="1051" y="807" />
            </Array>
          </mxGeometry>
        </mxCell>
        <mxCell id="63" value="Subscription" style="curved=1;startArrow=none;endArrow=block;exitX=0.96;exitY=1.01;entryX=0.5;entryY=0;" edge="1" parent="1" source="9" target="32">
          <mxGeometry relative="1" as="geometry">
            <Array as="points">
              <mxPoint x="3885" y="597" />
            </Array>
          </mxGeometry>
        </mxCell>
        <mxCell id="64" value="Manage Catalog" style="curved=1;startArrow=none;endArrow=block;exitX=0;exitY=0.56;entryX=1;entryY=0.36;" edge="1" parent="1" source="32" target="24">
          <mxGeometry relative="1" as="geometry">
            <Array as="points">
              <mxPoint x="1186" y="770" />
              <mxPoint x="1186" y="807" />
            </Array>
          </mxGeometry>
        </mxCell>
        <mxCell id="65" value="Adjust Price" style="curved=1;startArrow=none;endArrow=block;exitX=1;exitY=0.7;entryX=0.5;entryY=0;" edge="1" parent="1" source="9" target="33">
          <mxGeometry relative="1" as="geometry">
            <Array as="points">
              <mxPoint x="4154" y="597" />
            </Array>
          </mxGeometry>
        </mxCell>
        <mxCell id="66" value="Verify Data" style="curved=1;startArrow=none;endArrow=block;exitX=0.63;exitY=1;entryX=0.01;entryY=0;" edge="1" parent="1" source="26" target="24">
          <mxGeometry relative="1" as="geometry">
            <Array as="points">
              <mxPoint x="520" y="770" />
              <mxPoint x="520" y="807" />
            </Array>
          </mxGeometry>
        </mxCell>
      </root>
    </mxGraphModel>
  </diagram>
</mxfile>
